<svg xmlns="http://www.w3.org/2000/svg" viewBox="0 0 160 160"><g id="Слой_2" data-name="Слой 2"><g id="Git"><path d="M152.63,61.17c0,8.7-.85,19.79-7.49,28.46-6.77,8.84-18.68,14.2-36.41,16.41h-.07c-2.44.31-3.6,2.86-2.08,4.6l0,0c3.7,4.23,6.08,9.52,6.08,13.48v30.38a3.05,3.05,0,0,1-3.2,2.87h-32c-6.49,0-11.75-4.71-11.75-10.51V134.36a3.13,3.13,0,0,0-3.93-2.78h0a54.86,54.86,0,0,1-14.67.7c-9.55-.93-15.76-4.73-18.45-11.27l-.08-.16a54.5,54.5,0,0,0-3.55-6c-3.11-4.53-6.09-7.21-9.1-8.19-.32-.1-.59-.21-.83-.31,1.43-.32,3.56-.19,6.59,1.48a18,18,0,0,1,6.46,6,26.16,26.16,0,0,0,23.15,12.44,35.13,35.13,0,0,0,13-2.72h0A2.89,2.89,0,0,0,66,121.44h0a24,24,0,0,1,5.27-10.72l0,0c1.51-1.74.35-4.29-2.09-4.59h-.07c-39-4.85-44.39-24.44-44.39-44.9,0-8.18,3.57-16,10.34-22.58h0a2.63,2.63,0,0,0,.58-3.1v0A27.32,27.32,0,0,1,33.56,28a26,26,0,0,1,1-12.31,3.24,3.24,0,0,1,3.6-1.93c4.09.63,11.34,2.78,22.1,9.59l.84.53h1.51l.46-.12A98.41,98.41,0,0,1,88.7,20.45a98.39,98.39,0,0,1,25.62,3.27l.47.12h1.5l.85-.53c10.75-6.81,18-9,22.1-9.59a3.23,3.23,0,0,1,3.59,1.93,25.91,25.91,0,0,1,1,12.31,28,28,0,0,1-2.12,7.5v0a2.62,2.62,0,0,0,.57,3.09l0,0C149.06,45.19,152.63,53,152.63,61.17Z" style="fill:#fcb1bc"/><path d="M54.65,160V139.09a63.46,63.46,0,0,1-13.39.23c-12.76-1.21-21.51-6.74-25.31-16-2-4.19-6.42-10.77-9.39-11.75-3.28-1.09-5.36-2.68-6.18-4.72a4.8,4.8,0,0,1,.31-4.32L1,102l.5-.37c4.73-3.44,10.78-3.42,17.05.07a25.88,25.88,0,0,1,9.15,8.54c4.41,6.88,10.61,10.32,18.42,10.22a30.48,30.48,0,0,0,9.28-1.67,31.32,31.32,0,0,1,3.51-8.33,82,82,0,0,1-21.83-6.57A44.83,44.83,0,0,1,20.78,91.1a42.3,42.3,0,0,1-7.56-16.3,75.31,75.31,0,0,1-1.81-17.64c0-9.73,3.9-19,11.31-26.89C21,25.74,17.75,13.89,24.1,2L24.74.74,26.17.35C27.28,0,37.42-2.24,58.29,10.78A110.42,110.42,0,0,1,85.7,7.44a110.5,110.5,0,0,1,27.42,3.34C134-2.24,144.13,0,145.24.35l1.42.39L147.31,2c6.35,11.93,3.07,23.78,1.38,28.31C156.1,38.17,160,47.43,160,57.16c0,10.18-1,23.23-9.1,33.9a43.9,43.9,0,0,1-16.12,12.83,80.66,80.66,0,0,1-21.66,6.55c3,4.67,4.74,9.75,4.74,14V160H111V124.47c0-4.22-2.52-9.87-6.42-14.4L101,105.84l5.86-.74c18.71-2.36,31.28-8.09,38.42-17.54,7-9.27,7.91-21.11,7.91-30.4,0-8.75-3.78-17.1-10.92-24.14l-1.51-1.49.9-1.85a30.63,30.63,0,0,0,2.24-8,27.37,27.37,0,0,0-2-15.46c-3.14,0-11.63,1.14-26.2,10.49l-.88.57h-1.6l-.49-.13a102.54,102.54,0,0,0-27-3.5,102.52,102.52,0,0,0-27,3.5l-.48.13h-1.6l-.9-.57C41.13,7.34,32.64,6.22,29.49,6.2a27.54,27.54,0,0,0-2,15.46,30.4,30.4,0,0,0,2.25,8l.9,1.86L29.16,33c-7.14,7-10.92,15.39-10.92,24.14,0,21.85,5.68,42.79,46.84,48l5.84.73-3.6,4.22a25.87,25.87,0,0,0-5.56,11.46l-.28,1.53-1.53.71a36.91,36.91,0,0,1-13.74,2.9c-7.19.09-17.26-2.14-24.42-13.3A19.21,19.21,0,0,0,15,107c-3.19-1.78-5.44-1.91-7-1.58a9.28,9.28,0,0,0,.88.33c3.17,1,6.31,3.91,9.59,8.75a57.28,57.28,0,0,1,3.75,6.41l.08.18c2.84,7,9.4,11,19.48,12a58.09,58.09,0,0,0,15.48-.74l4.19-.89V160Z"/></g></g></svg>