<svg id="Слой_2" data-name="Слой 2" xmlns="http://www.w3.org/2000/svg" viewBox="0 0 964 1033.65"><path d="M335.62,435.77c-15.75-117,142.88-308.69,326.54-306C860.32,132.6,956,359.81,984,426.3c55.24,131.22,87.25,348.91-14.2,429.08C896.1,913.6,828,839.27,654.27,879c-184.35,42.21-215.1,150.52-312.34,129.36C202.71,978.1,104.21,720.91,173.14,629.8,217.27,571.46,323,590.51,346.66,522.53,357.86,490.35,340.1,469,335.62,435.77Z" transform="translate(-71.82 -13.18)" style="fill:#fcb1bc"/><path d="M391.65,1046.83l0-135.06c-19.21,2.54-47.69,4.69-78.36,1.47C238.56,905.4,187.36,869.71,165.12,810c-12-27.09-37.6-69.6-55-75.94C91,727,78.78,716.77,74,703.59a34,34,0,0,1,1.82-27.89l1.88-3.29,3-2.38c27.66-22.27,63.09-22.12,99.78.43a158,158,0,0,1,53.52,55.18c25.85,44.45,62.12,66.66,107.8,66,23.26-.33,43.46-6.64,54.3-10.78A214.3,214.3,0,0,1,416.57,727c-49.35-9.25-92.22-23.48-127.77-42.45-39.72-21.19-71.8-49.07-95.35-82.87-20.93-30-35.41-64.48-44.29-105.33-7.12-32.75-10.58-70-10.58-113.93,0-62.85,22.84-122.65,66.19-173.69C194.86,179.5,175.7,103,212.84,25.84L216.63,18,225,15.41c6.48-2,65.84-16.73,188,67.43,50.7-14.33,104.62-21.58,160.45-21.58s109.75,7.25,160.45,21.58C856-1.32,915.32,13.41,921.81,15.41L930.14,18l3.79,7.86c37.14,77.11,18,153.66,8.07,182.92,43.35,51,66.19,110.84,66.19,173.69,0,65.76-6.06,150.08-53.26,219-23.17,33.83-54.92,61.72-94.36,82.9-35.18,18.89-77.71,33.08-126.76,42.32,17.49,30.18,27.76,63,27.76,90.6v229.55h-40V817.28c0-27.25-14.73-63.77-37.52-93l-21.29-27.33,34.32-4.77c109.52-15.23,183.07-52.29,224.85-113.3,41-59.88,46.26-136.42,46.26-196.41,0-56.52-22.09-110.44-63.87-155.94l-8.86-9.64,5.3-12c.07-.16,9.11-21.14,13.11-51.77,4.71-36,.83-69.58-11.52-99.89-18.43.11-68.07,7.38-153.34,67.8l-5.19,3.68H734.5l-2.89-.85c-49.64-15-102.88-22.6-158.22-22.6s-108.58,7.6-158.22,22.6l-2.83.85H403L397.76,121c-85.26-60.42-134.9-67.68-153.33-67.8-12.36,30.31-16.24,63.86-11.53,99.89,4,30.63,13,51.61,13.14,51.82l5.3,12-8.88,9.59c-41.79,45.5-63.88,99.42-63.88,155.94,0,141.18,33.21,276.44,274.14,309.94l34.15,4.75-21.08,27.28c-16.07,20.82-28.23,48.47-32.5,74l-1.67,9.92-9,4.58c-1.45.74-36,18.12-80.38,18.74-42.09.55-101-13.83-142.95-85.9a118,118,0,0,0-39.89-41.22c-18.7-11.49-31.86-12.33-40.67-10.15,1.43.67,3.13,1.38,5.13,2.12,18.56,6.77,36.93,25.26,56.13,56.52A381,381,0,0,1,202,794.43l.46,1.14c16.63,45.18,55,71.35,114,77.79,47.21,5.15,90.12-4.68,90.55-4.78l24.53-5.73,0,25.19.06,158.78Z" transform="translate(-71.82 -13.18)"/></svg>