<svg xmlns="http://www.w3.org/2000/svg" viewBox="0 0 163.22 166"><g id="Слой_2" data-name="Слой 2"><g id="LinkedIn"><rect x="17.07" y="58.55" width="30.33" height="100.18" style="fill:#fcb1bc"/><path d="M163,93.52v65.21H133V103.14s.48-11.54-8.63-17.4a17.56,17.56,0,0,0-16.53-1.1c-5.2,2.26-13.12,7-14.77,17.59v56.5H62.71V58.55H93V71.22s6.15-13.14,33-15C126.06,56.25,159.84,55,163,93.52Z" style="fill:#fcb1bc"/><ellipse cx="32.23" cy="25.64" rx="18.05" ry="18.36" style="fill:#fcb1bc"/><path d="M41.09,166h-38V54.17h38Zm-32-6h26V60.17h-26Z"/><path d="M163.22,166H125.5V104.15c0-.09.27-10.58-7.75-15.73a15.52,15.52,0,0,0-14.63-.94c-8,3.47-12.61,8.87-13.81,16.07V166h-38V54.17h38v8.37c5.28-4.45,14.93-9.65,31.69-10.79.47,0,38.68-.91,42.21,42.12V166Zm-31.72-6h25.72V94.24C154.1,57,122.65,57.68,121.31,57.74,95.44,59.5,89.07,71.73,89,71.85L83.32,83.3V60.17h-26V160h26V103.08l0-.23c1-6.52,4.87-15.43,17.38-20.87A21.46,21.46,0,0,1,121,83.38c10.65,6.84,10.53,19.73,10.5,21Z"/><path d="M22.07,44.8A22.26,22.26,0,0,1,0,22.4,22.26,22.26,0,0,1,22.07,0,22.26,22.26,0,0,1,44.14,22.4,22.26,22.26,0,0,1,22.07,44.8Zm0-38.8A16.26,16.26,0,0,0,6,22.4,16.26,16.26,0,0,0,22.07,38.8,16.26,16.26,0,0,0,38.14,22.4,16.26,16.26,0,0,0,22.07,6Z"/></g></g></svg>