<svg xmlns="http://www.w3.org/2000/svg" viewBox="0 0 75.26 166"><g id="Слой_2" data-name="Слой 2"><g id="Scroll"><path d="M41.3,166a6.71,6.71,0,0,1-4.23-1.51L13.44,145.05a3,3,0,0,1,3.81-4.63l23.63,19.43a.68.68,0,0,0,.83,0l23.63-19.43a3,3,0,1,1,3.81,4.63L45.52,164.49A6.71,6.71,0,0,1,41.3,166Z" style="fill:#fcb1bc"/><rect x="8.38" y="11.86" width="66.88" height="107.92" rx="33.44" style="fill:#fcb1bc"/><path d="M37,115.62a37,37,0,0,1-37-37V37a37,37,0,1,1,73.93,0V78.65A37,37,0,0,1,37,115.62ZM37,6A31,31,0,0,0,6,37V78.65a31,31,0,1,0,61.93,0V37A31,31,0,0,0,37,6Z"/><rect x="31.3" y="21.01" width="11.32" height="23.93" rx="5.66"/><path d="M37,159.36a6.66,6.66,0,0,1-4.23-1.51L9.11,138.42a3,3,0,1,1,3.82-4.64l23.62,19.43a.65.65,0,0,0,.83,0L61,133.78a3,3,0,0,1,3.81,4.64L41.19,157.85A6.65,6.65,0,0,1,37,159.36Z"/></g></g></svg>