<svg xmlns="http://www.w3.org/2000/svg" viewBox="0 0 163 163"><g id="Слой_2" data-name="Слой 2"><g id="Telegram"><path d="M3.34,63.58,153.15.38c3.72-1.57,7.54,2,6.74,6.26L134.65,141.45c-1.17,6.25-7.85,9.07-12.55,5.3L68.76,104.46a6.31,6.31,0,0,1-.53-9.15L129.74,32c1.73-1.79-.41-4.78-2.41-3.36L46.37,86a8.65,8.65,0,0,1-8,1.11L3.55,74.33C-1.08,72.63-1.22,65.51,3.34,63.58Z" style="fill:#fcb1bc"/><path d="M128.1,163a10.11,10.11,0,0,1-6.47-2.4L70.35,118.33a9.22,9.22,0,0,1-3.23-6.5,9.4,9.4,0,0,1,2.43-7l52.19-55.91L52.5,100a11.06,11.06,0,0,1-10.57,1.5L8.48,88.68a8.58,8.58,0,0,1-5.34-8,8.67,8.67,0,0,1,5-8.3L152.21,9.18a7.3,7.3,0,0,1,7.55,1,8.84,8.84,0,0,1,3.09,8.55L138.58,153.53a11.3,11.3,0,0,1-7.13,8.87A9.79,9.79,0,0,1,128.1,163Zm1.52-126.22a4.74,4.74,0,0,1,3.53,1.61,5.29,5.29,0,0,1-.05,7.15L73.94,108.91a3.4,3.4,0,0,0-.83,2.53,3.19,3.19,0,0,0,1.06,2.26L125.47,156a3.86,3.86,0,0,0,3.93.78,5.35,5.35,0,0,0,3.27-4.29L156.94,17.65a2.83,2.83,0,0,0-.9-2.76,1.28,1.28,0,0,0-1.42-.22L10.55,77.88a2.72,2.72,0,0,0-1.41,2.67,2.65,2.65,0,0,0,1.49,2.53l33.44,12.8a5.05,5.05,0,0,0,4.87-.72L126.8,37.73A4.72,4.72,0,0,1,129.62,36.78Z"/></g></g></svg>