<svg xmlns="http://www.w3.org/2000/svg" viewBox="0 0 166 166.16"><g id="Слой_2" data-name="Слой 2"><g id="Theme"><path d="M101.23,9.6V163.15c-43,0-77.81-34.37-77.81-76.77S58.25,9.6,101.23,9.6Z" style="fill:#fcb1bc"/><path d="M85.18,166.16c-44.56,0-80.81-35.79-80.81-79.78S40.62,6.59,85.18,6.59,166,42.38,166,86.38,129.75,166.16,85.18,166.16Zm0-153.57c-41.25,0-74.81,33.1-74.81,73.79s33.56,73.78,74.81,73.78S160,127.06,160,86.38,126.44,12.59,85.18,12.59Z" style="fill:#fcb1bc"/><path d="M80.81,3V156.56C37.84,156.56,3,122.19,3,79.78S37.84,3,80.81,3Z" style="fill:#212121"/><path d="M80.82,159.57C36.25,159.57,0,123.78,0,79.78S36.25,0,80.82,0s80.81,35.79,80.81,79.78S125.38,159.57,80.82,159.57ZM80.82,6C39.56,6,6,39.1,6,79.78s33.56,73.79,74.82,73.79,74.81-33.1,74.81-73.79S122.07,6,80.82,6Z" style="fill:#212121"/></g></g></svg>